<?xml version="1.0" encoding="UTF-8" standalone="yes"?><svg xmlns="http://www.w3.org/2000/svg" xmlns:xlink="http://www.w3.org/1999/xlink" width="900px" height="734px" viewBox="-250.68859601366952 0 900 734" version="1.1"><g id='iconGroup'>
<g id="surface1">
<path style=" stroke:none;fill-rule:nonzero;fill:rgb(34.901961%,12.54902%,20.392157%);fill-opacity:1;" d="M 371.792969 298.527344 C 388.355469 269.480469 397.882812 235.898438 397.882812 200.042969 C 397.882812 90.21875 308.734375 1.039062 198.941406 1.039062 C 89.148438 1.039062 0 90.21875 0 200.042969 C 0 235.898438 9.527344 269.480469 26.089844 298.527344 C 25.179688 303.519531 24.726562 308.734375 24.726562 313.957031 C 24.726562 359.792969 59.433594 397.460938 104.121094 401.996094 L 103.441406 401.996094 C 107.75 424.464844 117.957031 446.019531 134.289062 464.402344 C 152.890625 485.503906 175.125 501.839844 199.167969 513.1875 C 223.210938 501.839844 245.445312 485.730469 264.046875 464.402344 C 280.148438 446.019531 290.359375 424.464844 294.894531 401.996094 L 294.214844 401.996094 C 338.902344 397.460938 373.609375 359.792969 373.609375 313.957031 C 373.15625 308.734375 372.703125 303.519531 371.792969 298.527344 Z M 325.292969 155.113281 C 331.417969 151.710938 339.808594 154.890625 344.121094 162.378906 C 348.429688 169.863281 347.070312 178.714844 341.171875 182.34375 C 335.273438 185.976562 326.652344 182.574219 322.34375 175.082031 C 317.804688 167.59375 319.167969 158.746094 325.292969 155.113281 Z M 81.890625 244.519531 C 84.160156 242.929688 86.65625 241.796875 89.148438 240.890625 C 94.367188 238.847656 99.8125 237.941406 105.484375 237.941406 C 111.152344 237.941406 116.824219 238.847656 122.042969 240.890625 C 123.402344 241.34375 124.765625 241.796875 125.898438 242.476562 C 127.03125 242.929688 128.394531 243.613281 129.527344 244.066406 C 130.660156 244.746094 132.023438 245.199219 133.15625 245.882812 L 136.558594 247.921875 C 141.097656 250.871094 145.40625 254.050781 149.488281 257.90625 L 152.4375 260.855469 C 153.347656 261.765625 154.253906 262.898438 155.160156 263.804688 C 156.066406 264.714844 156.976562 265.847656 157.65625 266.984375 C 158.5625 268.117188 159.242188 269.027344 159.925781 270.160156 C 161.511719 272.429688 162.644531 274.699219 164.007812 276.96875 L 165.820312 280.597656 C 166.273438 281.734375 166.726562 283.09375 167.410156 284.230469 C 169.222656 289.222656 170.585938 294.214844 170.8125 299.433594 C 164.460938 291.265625 158.335938 284 151.078125 277.648438 C 150.171875 276.742188 149.261719 276.058594 148.355469 275.382812 C 147.445312 274.699219 146.539062 273.792969 145.632812 273.109375 C 143.816406 271.75 142.003906 270.386719 140.1875 269.027344 C 136.332031 266.53125 132.476562 264.035156 128.621094 261.992188 L 125.671875 260.402344 L 122.496094 259.042969 C 121.585938 258.589844 120.453125 258.136719 119.320312 257.679688 C 118.1875 257.226562 117.277344 256.773438 116.144531 256.546875 C 114.101562 255.640625 112.0625 255.1875 110.019531 254.503906 C 107.976562 253.824219 105.9375 253.367188 103.667969 252.914062 C 99.359375 252.007812 95.046875 251.328125 90.285156 250.871094 C 85.519531 250.417969 80.753906 250.417969 75.3125 250.195312 C 77.582031 247.695312 79.621094 246.109375 81.890625 244.519531 Z M 89.601562 372.046875 C 61.703125 353.441406 51.496094 318.492188 62.609375 288.316406 C 63.515625 288.085938 64.421875 287.859375 65.332031 287.859375 C 107.523438 280.144531 148.355469 303.742188 163.554688 342.09375 C 166.726562 350.035156 169 358.429688 170.8125 367.054688 C 172.398438 376.132812 173.308594 385.207031 173.082031 394.054688 C 144.5 396.097656 115.007812 389.0625 89.601562 372.046875 Z M 172.398438 432.179688 C 166.503906 432.179688 161.964844 427.414062 161.964844 421.738281 C 161.964844 415.839844 166.726562 411.300781 172.398438 411.300781 C 178.296875 411.300781 182.835938 416.070312 182.835938 421.738281 C 183.0625 427.414062 178.296875 432.179688 172.398438 432.179688 Z M 170.359375 69.570312 C 176.710938 50.960938 211.644531 46.195312 248.617188 58.675781 C 285.59375 71.15625 310.546875 96.34375 304.421875 114.953125 C 298.070312 133.558594 263.140625 138.324219 226.160156 125.84375 C 188.960938 113.363281 164.007812 88.175781 170.359375 69.570312 Z M 225.484375 432.179688 C 219.582031 432.179688 215.046875 427.414062 215.046875 421.738281 C 215.046875 415.839844 219.8125 411.300781 225.484375 411.300781 C 231.378906 411.300781 235.914062 416.070312 235.914062 421.738281 C 235.914062 427.414062 231.152344 432.179688 225.484375 432.179688 Z M 308.507812 372.046875 C 282.875 389.0625 253.609375 396.328125 225.027344 394.054688 C 224.800781 385.207031 225.484375 376.132812 227.296875 367.054688 C 228.882812 358.429688 231.378906 350.035156 234.554688 342.09375 C 249.753906 303.519531 290.585938 279.917969 332.777344 287.859375 C 333.683594 288.085938 334.59375 288.316406 335.5 288.316406 C 346.617188 318.265625 336.179688 353.210938 308.507812 372.046875 Z M 349.566406 248.832031 C 344.574219 249.738281 339.582031 245.65625 338.675781 239.980469 C 337.769531 234.308594 340.945312 228.863281 346.160156 228.179688 C 351.152344 227.273438 356.144531 231.359375 357.050781 237.03125 C 357.957031 242.703125 354.554688 247.921875 349.566406 248.832031 Z M 349.566406 248.832031 "/>
</g>
</g><g id='primary_textGroup'><path fill="#7d424a" d="M-236.89 593.42L-236.38 592.92L-235.43 592.92Q-226.90 592.92-224.37 596.59L-224.37 596.59Q-217.73 592.92-205.53 592.92L-205.53 592.92Q-192.19 592.92-184.48 600.76L-184.48 600.76Q-176.33 592.92-164.89 592.92L-164.89 592.92L-160.02 592.92Q-140.48 592.92-133.78 610.05L-133.78 610.05Q-132.08 614.22-132.08 623.01L-132.08 623.01L-132.08 706.26L-132.58 706.77L-135.74 706.77Q-144.66 706.77-147.25 697.98L-147.25 697.98L-147.50 694.25L-147.50 620.86Q-147.50 611.88-153.63 609.54L-153.63 609.54Q-156.79 608.09-162.93 608.09L-162.93 608.09L-164.19 608.09Q-176.90 608.09-176.90 623.51L-176.90 623.51L-176.90 706.26L-177.40 706.77L-180.06 706.77Q-192.32 706.77-192.32 694.25L-192.32 694.25L-192.32 619.09Q-192.32 608.09-207.75 608.09L-207.75 608.09Q-221.46 608.09-221.46 620.86L-221.46 620.86L-221.46 691.34L-221.72 706.52L-221.97 706.77L-226.33 706.77Q-233.73 706.77-236.63 698.68L-236.63 698.68L-236.89 696.72L-236.89 593.42Z"/><path fill="#7d424a" d="M-117.22 593.42L-116.72 592.92L-83.47 592.92Q-64.88 592.92-58.31 610.68L-58.31 610.68Q-56.85 616.12-56.85 619.28L-56.85 619.28L-56.85 706.26L-57.36 706.77L-58.81 706.77Q-69.50 706.77-71.64 698.87L-71.64 698.87Q-72.40 697.16-72.40 692.73L-72.40 692.73L-72.40 666.12L-101.92 666.12L-101.92 706.01L-102.43 706.52L-106.60 706.52Q-114.06 706.52-116.72 698.61L-116.72 698.61L-117.22 694.44L-117.22 593.42ZM-84.48 608.22L-101.92 608.22L-101.92 650.82L-72.40 650.82L-72.40 619.03Q-72.40 610.49-81.51 608.47L-81.51 608.47L-84.48 608.22Z"/><path fill="#7d424a" d="M-42.56 593.68L-42.05 593.17L-39.14 593.17Q-33.07 593.17-29.60 596.84L-29.60 596.84L-29.35 596.84Q-23.91 593.17-16.20 593.17L-16.20 593.17L-12.97 593.17Q3.21 593.17 8.52 599.75L8.52 599.75Q17.31 608.28 17.31 619.09L17.31 619.09L17.31 646.65Q17.31 657.90 9.72 665.99L9.72 665.99Q17.56 673.20 17.56 690.14L17.56 690.14L17.56 706.26L17.05 706.77L14.34 706.77Q5.61 706.77 2.64 699.69L2.64 699.69L2.14 696.02L2.14 685.53Q2.14 676.74-6.40 674.02L-6.40 674.02L-10.82 673.52L-27.20 673.52L-27.20 706.26L-27.64 706.77L-32.32 706.77Q-39.71 706.77-42.30 697.73L-42.30 697.73L-42.56 695.52L-42.56 593.68ZM-27.20 621.49L-27.20 621.49L-27.20 658.16L-10.32 658.16L-9.31 658.41Q-5.77 658.41-1.28 655.00L-1.28 655.00Q2.14 651.33 2.14 641.78L2.14 641.78L2.14 621.24Q2.14 610.75-7.16 608.53L-7.16 608.53L-10.06 608.34L-11.77 608.34Q-22.01 608.34-24.98 612.96L-24.98 612.96Q-27.20 615.93-27.20 621.49Z"/><path fill="#7d424a" d="M39.95 593.42L41.91 592.92L91.97 592.92L92.48 593.42L92.48 597.85Q92.48 604.80 84.64 607.65L84.64 607.65L82.43 607.90L70.67 607.90L70.67 706.01Q70.67 706.77 65.74 706.77L65.74 706.77Q55.18 705.50 55.18 696.21L55.18 696.21L55.18 607.90L37.29 607.90L32.11 607.90L32.11 607.90Q32.11 595.51 39.95 593.42L39.95 593.42Z"/><path fill="#7d424a" d="M105.77 593.42L106.28 592.92L108.49 592.92Q117.40 592.92 120.44 600.00L120.44 600.00Q121.13 601.58 121.13 603.92L121.13 603.92L121.13 706.26L120.94 706.52L120.94 706.77Q105.77 706.77 105.77 694.57L105.77 694.57L105.77 593.42Z"/><path fill="#7d424a" d="M135.44 593.42L135.94 592.92L169.19 592.92Q187.78 592.92 194.35 610.68L194.35 610.68Q195.81 616.12 195.81 619.28L195.81 619.28L195.81 706.26L195.30 706.77L193.85 706.77Q183.16 706.77 181.02 698.87L181.02 698.87Q180.26 697.16 180.26 692.73L180.26 692.73L180.26 666.12L150.74 666.12L150.74 706.01L150.23 706.52L146.06 706.52Q138.60 706.52 135.94 698.61L135.94 698.61L135.44 694.44L135.44 593.42ZM168.18 608.22L150.74 608.22L150.74 650.82L180.26 650.82L180.26 619.03Q180.26 610.49 171.15 608.47L171.15 608.47L168.18 608.22Z"/><path fill="#7d424a" d="M215.54 592.92L215.54 592.92Q219.65 592.92 223.63 596.33L223.63 596.33Q228.50 592.92 240.26 592.92L240.26 592.92L240.51 592.92Q260.55 592.92 267.44 607.14L267.44 607.14Q270.16 613.27 270.16 619.60L270.16 619.60L270.16 706.26L269.65 706.77L266.24 706.77Q257.51 706.77 254.99 697.73L254.99 697.73L254.99 622.82Q254.99 612.33 249.36 609.80L249.36 609.80Q246.14 608.09 238.80 608.09L238.80 608.09Q225.59 608.09 225.59 621.81L225.59 621.81L225.59 706.26L225.08 706.77L221.42 706.77Q212.82 706.77 210.42 698.17L210.42 698.17L210.17 695.77L210.17 593.87Q210.17 593.17 215.54 592.92Z"/><path fill="#7d424a" d=""/><path fill="#7d424a" d="M307.96 593.42L309.86 593.17Q320.86 594.44 320.86 604.17L320.86 604.17L320.86 680.15Q320.86 688.88 330.15 691.41L330.15 691.41L333.56 691.60L336.53 691.60Q344.94 691.60 347.98 686.48L347.98 686.48Q350.19 683.32 350.19 678.45L350.19 678.45L350.19 600.76L350.69 600.25L352.91 600.25Q361.50 600.25 364.35 606.64L364.35 606.64Q365.36 608.98 365.36 611.25L365.36 611.25L365.36 676.74Q365.36 686.98 369.97 689.19L369.97 689.19Q373.45 691.60 378.51 691.60L378.51 691.60L380.47 691.60Q391.03 691.60 393.93 684.07L393.93 684.07Q394.88 682.05 394.88 678.70L394.88 678.70L394.88 603.41Q394.88 596.71 402.97 593.68L402.97 593.68L409.29 593.17L409.55 593.17L410.05 593.68L410.05 678.45Q410.05 698.30 392.67 705.06L392.67 705.06Q387.30 706.77 382.18 706.77L382.18 706.77L377.05 706.77Q366.25 706.77 357.52 698.68L357.52 698.68Q348.99 706.77 338.68 706.77L338.68 706.77L333.56 706.77Q314.85 706.77 307.96 691.41L307.96 691.41Q306.00 687.17 305.24 680.15L305.24 680.15L305.50 670.36L305.50 593.93L306.00 593.42L307.96 593.42Z"/><path fill="#7d424a" d="M424.10 593.42L424.60 592.92L457.85 592.92Q476.44 592.92 483.01 610.68L483.01 610.68Q484.47 616.12 484.47 619.28L484.47 619.28L484.47 706.26L483.96 706.77L482.51 706.77Q471.82 706.77 469.68 698.87L469.68 698.87Q468.92 697.16 468.92 692.73L468.92 692.73L468.92 666.12L439.40 666.12L439.40 706.01L438.89 706.52L434.72 706.52Q427.26 706.52 424.60 698.61L424.60 698.61L424.10 694.44L424.10 593.42ZM456.84 608.22L439.40 608.22L439.40 650.82L468.92 650.82L468.92 619.03Q468.92 610.49 459.81 608.47L459.81 608.47L456.84 608.22Z"/><path fill="#7d424a" d="M499.02 592.92L503.19 592.92Q512.61 592.92 515.89 601.96L515.89 601.96L529.61 667.83L529.86 667.83Q543.08 603.10 544.28 599.75L544.28 599.75Q548.20 592.92 556.29 592.92L556.29 592.92L560.21 592.92Q560.71 592.92 560.71 593.68L560.71 593.68L536.69 706.52L536.44 706.77L533.03 706.77Q521.27 706.77 519.31 690.40L519.31 690.40L498.76 593.17L499.02 592.92Z"/><path fill="#7d424a" d="M605.45 593.17L605.45 593.17L621.57 593.17Q635.54 593.17 635.54 605.88L635.54 605.88L635.54 607.84L635.04 608.34L605.20 608.34Q595.59 608.34 592.56 613.46L592.56 613.46Q590.60 617.13 590.60 625.16L590.60 625.16L590.60 642.29L616.45 642.29Q624.86 642.29 627.71 649.62L627.71 649.62L628.21 653.29L628.21 656.96L627.71 657.40L591.04 657.40L590.60 657.90L590.60 674.78Q590.60 686.22 594.46 688.69L594.46 688.69Q597.05 691.60 604.00 691.60L604.00 691.60L623.28 691.60Q631.88 691.60 634.79 698.93L634.79 698.93L635.29 703.10L635.29 706.26L634.79 706.77L603.05 706.77Q584.40 706.77 577.13 689.45L577.13 689.45Q575.43 684.07 575.43 678.20L575.43 678.20L575.43 621.49Q575.43 601.90 593.00 594.63L593.00 594.63Q597.68 593.17 605.45 593.17Z"/></g><g id='secondary_textGroup'></g></svg>